<?xml version="1.0" encoding="UTF-8"?>
<svg id="Layer_1" xmlns="http://www.w3.org/2000/svg" viewBox="0 0 375 375">
  <defs>
    <style>
      .cls-1 {
        fill: #fff;
      }
    </style>
  </defs>
  <path class="cls-1" d="M0,375V0h375v375H0ZM236.72,238.21c2.63-6.27,5.07-12.12,7.57-17.95.32-.75.86-1.86,1.45-1.96,3.39-.6,5.53-2.51,7.03-5.53.35-.71,1.84-1.09,2.85-1.18,4.47-.44,8.96-.63,13.42-1.08,6.1-.62,9.48-4.31,9.49-10.38.02-11.11-.02-22.22-.11-33.32-.05-6.36-3.31-10.03-9.69-10.61-6.33-.57-12.69-.95-19.04-1.13-2.5-.07-3.55-.83-4.45-3.26-2.5-6.76-5.31-13.42-8.38-19.95-.99-2.12-.72-3.28.67-4.84,4.12-4.68,8.17-9.43,12.17-14.21,4.47-5.35,4.27-10.32-.66-15.22-7.7-7.65-15.44-15.26-23.23-22.83-4.68-4.55-9.68-4.62-14.61-.31-4.88,4.27-9.79,8.52-14.55,12.92-1.55,1.43-2.67,1.35-4.54.53-6.61-2.88-13.3-5.58-20.07-8.05-2.2-.8-3.21-1.78-3.35-4.13-.4-6.47-.84-12.95-1.56-19.39-.71-6.29-4.18-9.34-10.42-9.36-11.23-.03-22.46.02-33.68.13-6.06.06-9.67,3.64-10.08,9.72-.44,6.6-.97,13.19-1.27,19.8-.09,1.94-.81,2.7-2.56,3.41-7.02,2.84-13.93,5.97-20.96,8.8-1.06.43-2.92.28-3.77-.4-4.96-3.98-9.7-8.23-14.57-12.32-5.45-4.58-10.62-4.46-15.59.56-7.65,7.7-15.21,15.49-22.74,23.31-4.45,4.63-4.49,9.91-.26,14.69,4.22,4.76,8.38,9.59,12.75,14.2,1.6,1.68,1.42,2.88.56,4.86-2.89,6.6-5.63,13.29-8.07,20.07-.83,2.3-1.96,3.07-4.2,3.21-6.84.44-13.69.89-20.51,1.63-4.62.5-8,4.3-8.03,8.9-.07,11.86-.08,23.71.12,35.57.1,5.62,3.85,9.25,9.44,9.66,6.59.49,13.19.98,19.79,1.25,2.22.09,3.1.86,3.91,2.96,2.59,6.73,5.4,13.38,8.46,19.91,1.02,2.18.88,3.5-.66,5.23-4.16,4.65-8.18,9.42-12.19,14.2-4.3,5.11-4.1,10.21.63,14.92,7.69,7.66,15.42,15.28,23.18,22.87,4.71,4.6,9.97,4.68,14.95.31,4.78-4.19,9.59-8.37,14.29-12.66,1.46-1.34,2.57-1.62,4.54-.75,6.82,3.01,13.74,5.81,20.72,8.41,1.98.74,2.7,1.63,2.83,3.67.4,6.6.95,13.19,1.51,19.78.44,5.13,3.83,9.09,8.21,9.13,11.97.12,23.95.16,35.93-.05,5.81-.1,9.43-3.85,9.93-9.65.35-3.98.54-7.97.75-11.95.15-2.76.09-5.44,3.67-6.42,1.09-.3,2.37-1.82,2.61-2.97.7-3.39,3.16-4.4,5.91-5.37,1.87-.66,3.6-1.81,5.5-2.32,5.58-1.51,10.94.57,15.89,2.35,3.5,1.26,6.07,5.03,9.15,7.58,5.36,4.43,10.33,4.19,15.23-.78,7.53-7.64,15.03-15.32,22.48-23.04,4.79-4.97,4.88-10.03.33-15.24-4.68-5.35-9.43-10.64-14.08-15.88ZM340.43,336.93c5.4-.6,7.95-4.31,10.84-7.29,4.37-4.5,4.71-9.63.21-13.85-4.34-4.08-.62-7.21.23-10.76.75-3.12,2.98-3.4,5.7-3.52,6.29-.27,9.34-3.68,9.41-10.07.01-1.37.01-2.74,0-4.12-.06-7.01-2.91-10.08-9.89-10.27-2.76-.08-4.49-1.05-5.24-3.75-.3-1.07-.71-2.15-1.27-3.1-1.7-2.92-1.15-5.17,1.22-7.64,4.16-4.33,3.93-9.18-.16-13.63-.84-.92-1.74-1.79-2.63-2.66-5.22-5.13-10.03-5.32-15.34-.33-1.83,1.72-3.52,2.05-5.7,1.05-1.7-.78-3.64-1.17-5.12-2.22-1.16-.83-2.37-2.32-2.56-3.67-1.37-9.54-3.14-11.2-12.62-11.2-.87,0-1.75,0-2.62,0-5.74.09-9.22,3.21-9.4,8.86-.1,3.15-.66,5.62-4.08,6.66-3.62,1.1-6.89,3.95-10.71-.38-3.24-3.67-8.44-3.48-12.25-.6-6.81,5.15-9.19,10.45-6.88,15.37.26.56.54,1.22,1.01,1.56,4.5,3.22,3.3,6.9,1.49,11.15-1.39,3.26-3.12,4.59-6.66,4.59-5.61,0-8.86,3.6-8.95,9.25-.02,1.25,0,2.49,0,3.74,0,8.36,2.36,10.96,10.66,11.44,2.36.13,3.68,1.11,4.38,3.27.42,1.3.87,2.62,1.54,3.8,1.53,2.68,1.06,4.7-1.11,6.97-4.6,4.81-4.33,9.57.39,14.41,1.13,1.16,2.25,2.34,3.45,3.42,4.28,3.84,9.2,4.26,12.95-.02,4.24-4.84,7.64-.88,11.38.02,3.12.75,3.19,3.28,3.33,5.9.33,6.09,3.33,8.95,9.45,9.22,1.74.08,3.49.07,5.23.01,6.5-.23,9.58-3.09,9.77-9.69.1-3.3,1.28-5.13,4.46-5.84,1.07-.24,2.12-.75,3.09-1.3,2.42-1.38,4.28-.88,6.36.98,1.93,1.73,4.41,2.86,6.65,4.25ZM338.9,58.76c-.37-4.27-3.32-6.29-5.68-8.62-3.62-3.58-7.46-3.69-11.13-.14-1.81,1.75-3.46,2.1-5.66.96-2.54-1.32-5.72-1.5-5.91-5.7-.1-2.18-1.4-4.99-3.09-6.28-6.47-4.93-15.46-.89-16.24,7.1-.36,3.76-3.45,3.99-5.87,4.77-1.47.48-3.8.38-4.93-.5-5.29-4.11-8.07-3.95-13.39,1.43-4.63,4.69-4.67,7.68-.72,12.62.87,1.08,1.26,3.33.74,4.57-.97,2.31-.91,5.6-4.59,6.11-7.77,1.07-8.75,2.32-8.73,10.41.01,6.71,1.72,8.83,8.3,9.36,4.05.32,4.04,3.7,4.97,6.12.51,1.33-.01,3.66-.95,4.83-3.52,4.41-3.57,7.77.4,11.83,5.72,5.86,8.9,6.54,13.54,2.09,3.18-3.06,5.49-.22,8.14.39,2.28.53,2.99,2.14,3.09,4.45.24,5.65,3.07,7.92,9.46,7.93,6.78.01,9.71-2.18,9.96-7.81.1-2.26.64-3.96,2.98-4.53,2.77-.67,5.26-3.59,8.5-.32,1.47,1.48,4.25,2.68,6.23,2.43,4.66-.59,7.56-4.22,9.48-8.2,1.59-3.31-.05-6.17-2.46-8.74-2.32-2.47.34-9.68,3.67-10.36,8.73-1.79,9.23-2.41,9.11-11.3-.08-5.92-1.97-8.23-7.96-8.5-4.11-.18-3.94-3.54-5.28-5.83-1.16-1.98-.8-3.6.85-5.34,1.36-1.45,2.13-3.46,3.16-5.22Z"/>
  <path d="M236.72,238.21c4.66,5.25,9.4,10.53,14.08,15.88,4.56,5.21,4.47,10.27-.33,15.24-7.45,7.72-14.95,15.4-22.48,23.04-4.9,4.97-9.87,5.21-15.23.78-3.08-2.54-5.65-6.32-9.15-7.58-4.96-1.78-10.31-3.86-15.89-2.35-1.9.51-3.62,1.66-5.5,2.32-2.75.97-5.21,1.98-5.91,5.37-.24,1.16-1.52,2.68-2.61,2.97-3.58.98-3.52,3.66-3.67,6.42-.21,3.99-.41,7.98-.75,11.95-.5,5.8-4.12,9.55-9.93,9.65-11.97.2-23.95.16-35.93.05-4.38-.04-7.77-4.01-8.21-9.13-.56-6.59-1.11-13.18-1.51-19.78-.12-2.03-.85-2.93-2.83-3.67-6.98-2.61-13.9-5.41-20.72-8.41-1.97-.87-3.08-.59-4.54.75-4.7,4.29-9.5,8.46-14.29,12.66-4.98,4.37-10.23,4.3-14.95-.31-7.77-7.58-15.5-15.2-23.18-22.87-4.73-4.71-4.92-9.81-.63-14.92,4.01-4.78,8.04-9.55,12.19-14.2,1.54-1.72,1.69-3.05.66-5.23-3.06-6.53-5.87-13.18-8.46-19.91-.81-2.1-1.68-2.87-3.91-2.96-6.6-.27-13.2-.76-19.79-1.25-5.59-.41-9.34-4.04-9.44-9.66-.2-11.85-.19-23.71-.12-35.57.03-4.59,3.41-8.39,8.03-8.9,6.81-.74,13.66-1.19,20.51-1.63,2.25-.15,3.38-.91,4.2-3.21,2.44-6.78,5.18-13.46,8.07-20.07.86-1.97,1.04-3.17-.56-4.86-4.37-4.62-8.53-9.44-12.75-14.2-4.23-4.78-4.19-10.06.26-14.69,7.53-7.82,15.09-15.61,22.74-23.31,4.98-5.01,10.14-5.14,15.59-.56,4.87,4.09,9.61,8.34,14.57,12.32.85.68,2.71.83,3.77.4,7.03-2.83,13.93-5.96,20.96-8.8,1.74-.7,2.47-1.47,2.56-3.41.3-6.6.83-13.2,1.27-19.8.4-6.08,4.02-9.66,10.08-9.72,11.23-.11,22.45-.16,33.68-.13,6.24.02,9.72,3.06,10.42,9.36.72,6.44,1.16,12.92,1.56,19.39.15,2.34,1.16,3.32,3.35,4.13,6.77,2.47,13.46,5.18,20.07,8.05,1.87.81,2.99.9,4.54-.53,4.76-4.4,9.67-8.65,14.55-12.92,4.93-4.31,9.93-4.24,14.61.31,7.78,7.57,15.53,15.18,23.23,22.83,4.93,4.9,5.14,9.87.66,15.22-4,4.79-8.05,9.53-12.17,14.21-1.38,1.57-1.66,2.73-.67,4.84,3.07,6.52,5.88,13.19,8.38,19.95.9,2.43,1.95,3.19,4.45,3.26,6.35.18,12.71.55,19.04,1.13,6.38.58,9.64,4.25,9.69,10.61.09,11.11.13,22.22.11,33.32-.01,6.06-3.38,9.75-9.49,10.38-4.46.46-8.96.64-13.42,1.08-1.01.1-2.5.48-2.85,1.18-1.51,3.03-3.64,4.93-7.03,5.53-.59.1-1.13,1.21-1.45,1.96-2.5,5.83-4.94,11.69-7.57,17.95ZM139.87,246.6c32.19,1.26,61.53-24.67,63.42-59.59,1.82-33.71-24.63-62.6-59.82-64.74-33.03-2.01-62.95,24.77-64.5,58.84-1.73,38.21,28.57,65.33,60.9,65.49ZM270.71,204.95c-6.33-7.77-12.13-14.89-17.94-22-.3-.37-.73-.85-1.14-.88-4.86-.41-9.79-3.31-14.48,1.03-1.76,1.63-4.36,2.34-6.57,3.48-3.93,2.04-4.27,4.81-.89,7.64,2.95,2.48,5.89,5,8.99,7.29.92.68,2.45,1.07,3.55.84,3.46-.7,6.37-.14,8.86,2.51.68.72,1.83,1.47,2.72,1.42,5.32-.3,10.64-.82,16.89-1.35ZM209.04,241.12c1.32-.56,1.72-.62,1.95-.85,8.39-8.5,16.77-17,25.1-25.55.54-.55.97-1.45,1.02-2.21.25-3.69-.47-6.83-4.14-8.91-2.46-1.39-4.49-3.53-6.74-5.29-2.69-2.1-6.16-.94-7.03,2.4-1.75,6.73-3.44,13.48-5.13,20.22-1.62,6.46-3.23,12.93-5.04,20.18ZM145.12,258.86v53.41l1.13.28c4.09-9.76,15.03-15.43,15.39-27.55.1-3.55-2.58-8.73-6.38-9.4-4.56-.81-7.84-4.31-6.97-8.6.76-3.76-1.28-5.69-3.17-8.14ZM248.48,259.6c-5.35-6.07-10.3-11.71-14.38-16.34-9.6,9.02-18.92,17.78-28.24,26.54.12.19.25.38.37.57,13.91-3.55,27.82-7.09,42.25-10.77ZM246.03,266.32c-.12-.19-.23-.37-.35-.56-12.75,3.25-25.5,6.46-38.23,9.78-2.43.63-2.95,3.39-1.03,5.08,3.36,2.97,6.81,5.84,10.24,8.73,2.54,2.14,4.97,1.92,7.26-.42,2.7-2.76,5.39-5.53,8.09-8.29,4.67-4.78,9.35-9.55,14.03-14.32ZM178.07,279.51l1.27,1.63c1.67-.74,3.33-1.51,5.02-2.21,2.79-1.15,5.02-2.48,5.92-5.89.87-3.33,3.99-4.42,7.3-4.89,1.45-.21,3.13-.83,4.13-1.83,9.35-9.33,18.71-18.67,27.79-28.26,4.44-4.69,6.35-10.86,8.13-15.42-7.28,6.84-15.38,14.4-23.37,22.06-.68.65-.85,1.97-.99,3.01-.61,4.63-3.11,7.1-7.68,7.76-1.24.18-2.63.73-3.53,1.56-8.05,7.43-16.01,14.97-24,22.48ZM273.04,199.43v-34.7c-4.99,2.57-9.52,4.81-13.96,7.24-1.78.97-2.7,6.96-1.42,8.55,4.91,6.1,9.88,12.16,15.38,18.91ZM213.24,202.35c-.19-.09-.37-.18-.56-.27-7.57,9.83-15.14,19.66-22.7,29.48,3.14,3.23,6.25,6.41,9.69,9.94,1.61-1.34,4.08-2.34,4.52-3.92,3.25-11.68,6.09-23.47,9.05-35.23ZM186.66,234.64c-8,9.38-15.11,17.71-22.22,26.04,10.53-3.18,20.65-6.85,30.74-10.61,3.2-1.19,2.03-3.21.59-4.94-2.86-3.44-5.86-6.77-9.11-10.49ZM195.52,257.16c-.35-.38-.7-.77-1.05-1.15-8.59,3.18-17.18,6.35-25.76,9.53-6.16,2.28-7.41,6.78-3.35,11.99,1.61,2.06,6.27,2.61,8.17.81,7.36-7.02,14.67-14.11,22-21.18ZM207.41,200.1c2.37-3.07,5.36-5.45,4.41-10.29-.74-3.79,2.63-7.48,6.58-7.61,3.73-.12,5.11-2.25,6.58-5.13-6.31-4.5-12.51-8.92-18.98-13.54.91,6.52,2.2,12.38,2.42,18.27.22,6.04-.63,12.11-1.01,18.29ZM228.54,173.15c3.45-4.49,6.71-8.74,9.97-12.99l-.53-1h-28.97c6.69,4.79,13.03,9.33,19.53,13.99ZM229.87,180.13c.13.21.25.42.38.63,2.84-1.48,5.65-3.03,8.53-4.42,1.8-.87,2.76-1.88,3.08-4.11.71-4.96,5.88-8.08,10.39-5.87,3.12,1.53,5.09.51,7.46-.79,2.25-1.24,4.53-2.44,6.79-3.66-6.56-1.03-12.78-1.46-19.01-1.64-1.13-.03-2.65.71-3.37,1.59-4.84,6.01-9.52,12.15-14.25,18.25ZM236.24,142.42c-7.4,3.53-14.41,6.87-21.42,10.22.11.39.22.78.33,1.16h25.3c-1.36-3.67-2.72-7.34-4.21-11.38ZM149.47,316.62c3.75,0,6.79.36,9.68-.14,1.67-.29,4.26-1.78,4.45-3.03.86-5.66,1.01-11.42,1.42-17.15-.28-.05-.56-.09-.85-.14-4.77,6.63-9.54,13.26-14.71,20.46ZM147.46,252.38c0-.08-.07.22.05.39,1.12,1.64,2.26,3.27,3.42,4.88,1.64,2.25,6.16,3.08,7.99,1.12,3.57-3.84,6.85-7.94,10.4-12.11-7.58,1.98-14.69,3.84-21.86,5.72Z"/>
  <path d="M340.43,336.93c-2.24-1.39-4.71-2.52-6.65-4.25-2.08-1.86-3.94-2.36-6.36-.98-.97.55-2.01,1.06-3.09,1.3-3.18.71-4.37,2.54-4.46,5.84-.19,6.59-3.27,9.45-9.77,9.69-1.74.06-3.49.06-5.23-.01-6.12-.27-9.12-3.13-9.45-9.22-.14-2.62-.21-5.15-3.33-5.9-3.74-.89-7.14-4.86-11.38-.02-3.75,4.28-8.67,3.86-12.95.02-1.2-1.08-2.32-2.27-3.45-3.42-4.72-4.83-4.99-9.59-.39-14.41,2.17-2.27,2.64-4.29,1.11-6.97-.67-1.18-1.12-2.5-1.54-3.8-.7-2.16-2.02-3.14-4.38-3.27-8.3-.47-10.65-3.08-10.66-11.44,0-1.25-.01-2.49,0-3.74.09-5.65,3.34-9.26,8.95-9.25,3.54,0,5.27-1.33,6.66-4.59,1.81-4.24,3.02-7.92-1.49-11.15-.47-.34-.74-1-1.01-1.56-2.31-4.92.07-10.22,6.88-15.37,3.8-2.88,9.01-3.07,12.25.6,3.82,4.33,7.09,1.48,10.71.38,3.42-1.04,3.98-3.51,4.08-6.66.18-5.65,3.67-8.77,9.4-8.86.87-.01,1.75,0,2.62,0,9.49,0,11.25,1.66,12.62,11.2.19,1.34,1.4,2.84,2.56,3.67,1.48,1.05,3.42,1.44,5.12,2.22,2.18,1,3.86.68,5.7-1.05,5.31-5,10.12-4.8,15.34.33.89.87,1.79,1.74,2.63,2.66,4.09,4.45,4.31,9.3.16,13.63-2.37,2.47-2.92,4.72-1.22,7.64.56.96.97,2.03,1.27,3.1.75,2.7,2.48,3.67,5.24,3.75,6.98.19,9.82,3.25,9.89,10.27.01,1.37.01,2.74,0,4.12-.07,6.39-3.12,9.8-9.41,10.07-2.72.12-4.95.4-5.7,3.52-.85,3.55-4.57,6.69-.23,10.76,4.49,4.22,4.16,9.35-.21,13.85-2.9,2.98-5.44,6.69-10.84,7.29ZM307.73,342.91c5.83,0,6.05-.38,6.64-6.36.2-1.98,1-4.22,2.27-5.71,5.12-5.98,15.47-6.79,21.53-1.87,2.15,1.74,4,1.72,5.87-.3.76-.82,1.59-1.58,2.37-2.39,3.14-3.23,3.22-4.22.13-7.41-3.35-3.47-3.95-7.32-2.04-11.66.65-1.48,1.4-2.93,1.91-4.46,1.57-4.72,4.67-7.09,9.75-7.06,4.31.02,5.17-1.1,5.22-5.79.07-6.03-.45-6.8-5.03-7.03-5.01-.25-8.53-2.38-9.98-7.41-.34-1.19-.82-2.36-1.4-3.45-2.55-4.81-1.98-9.11,2.01-12.87,2.42-2.28,2.37-4.47-.08-6.68-1.02-.92-2.02-1.86-2.96-2.85-1.92-2.01-3.87-2.17-5.75-.04-5.52,6.26-11.36,3.24-17.35.84-4.89-1.97-6.71-5.5-6.6-10.53.06-2.85-1.46-4.38-4.46-4.2-1.24.07-2.5.09-3.74,0-3.33-.26-4.59,1.33-4.96,4.56-.29,2.49-.85,5.34-2.32,7.23-4.75,6.12-15.68,7.03-21.48,2.06-2.12-1.82-3.86-1.99-5.78.09-.85.91-1.8,1.73-2.68,2.61-2.97,2.99-3.09,4.1-.12,7.15,3.49,3.59,4.05,7.52,2.05,11.99-.61,1.36-1.26,2.72-1.69,4.15-1.51,5-5.05,7.12-10.04,7.38-4.57.24-4.98.87-4.91,7.08.05,4.84.73,5.77,5.18,5.74,4.95-.04,7.93,2.34,9.58,6.8.52,1.4,1.04,2.81,1.69,4.15,2.27,4.68,1.81,8.86-1.95,12.65-.91.91-2.2,2.87-1.87,3.35,1.79,2.59,3.75,5.26,6.27,7.04.9.64,3.86-.68,5.26-1.85,3.56-2.97,7.14-3.77,11.35-1.67,1.66.83,3.47,1.37,5.2,2.05,3.85,1.51,5.98,4.23,6.28,8.45.43,6.06.7,6.26,6.65,6.26Z"/>
  <path d="M338.9,58.76c-1.03,1.76-1.8,3.77-3.16,5.22-1.65,1.75-2,3.36-.85,5.34,1.34,2.29,1.16,5.64,5.28,5.83,5.99.27,7.89,2.58,7.96,8.5.11,8.9-.38,9.51-9.11,11.3-3.33.68-6,7.89-3.67,10.36,2.41,2.57,4.06,5.43,2.46,8.74-1.92,3.98-4.81,7.6-9.48,8.2-1.98.25-4.76-.95-6.23-2.43-3.24-3.27-5.73-.35-8.5.32-2.33.57-2.88,2.27-2.98,4.53-.25,5.63-3.18,7.83-9.96,7.81-6.39-.01-9.22-2.28-9.46-7.93-.1-2.31-.81-3.92-3.09-4.45-2.65-.62-4.96-3.45-8.14-.39-4.64,4.46-7.82,3.77-13.54-2.09-3.96-4.06-3.92-7.42-.4-11.83.94-1.17,1.46-3.5.95-4.83-.93-2.41-.92-5.8-4.97-6.12-6.59-.52-8.29-2.65-8.3-9.36-.02-8.09.96-9.34,8.73-10.41,3.69-.51,3.62-3.8,4.59-6.11.52-1.24.12-3.49-.74-4.57-3.95-4.94-3.91-7.94.72-12.62,5.32-5.38,8.1-5.54,13.39-1.43,1.13.88,3.46.98,4.93.5,2.42-.78,5.5-1.01,5.87-4.77.77-7.98,9.76-12.02,16.24-7.1,1.7,1.29,3,4.11,3.09,6.28.19,4.21,3.37,4.39,5.91,5.7,2.2,1.14,3.84.79,5.66-.96,3.67-3.55,7.51-3.44,11.13.14,2.36,2.33,5.31,4.35,5.68,8.62ZM334.44,58.17c-1.9-1.93-3.49-4-5.54-5.41-.76-.52-3.05.07-3.84.91-3.97,4.21-8.05,2.51-12.35.83-4.13-1.61-6.72-4.1-6.55-8.85.13-3.33-2.12-3.76-4.77-3.71-2.65.06-5.73-.34-5.63,3.58.13,5.18-2.83,7.48-7.14,9.21-4.32,1.74-8.22,2.77-11.91-1.3-2.3-2.54-4.21-.71-5.94,1.1-1.71,1.79-4.22,3.61-1.42,6.17,4.71,4.3,2.65,8.63.77,13.27-1.63,4.01-4.42,5.85-8.57,5.93-4.21.09-3.24,3.21-3.38,5.69-.15,2.54.36,4.6,3.53,4.41,6.45-.38,7.74,4.59,9.69,9.08,1.65,3.79,1.26,6.98-1.8,9.82-2.67,2.48-1.04,4.34.9,6.23,1.96,1.91,3.78,3.98,6.52,1.14,4.05-4.19,8.31-2.43,12.72-.63,3.91,1.59,6.05,4.09,5.99,8.44-.05,3.74,2.64,3.91,5.46,3.91,2.8,0,5.08-.55,4.97-4.01-.12-4.01,1.74-6.54,5.39-8.04,4.42-1.83,8.85-4.19,13.09.13,3.12,3.17,4.92.78,7.09-1.22,2.46-2.26,2.49-4.12.13-6.59-1.25-1.31-2.27-3.44-2.31-5.22-.15-6.7,4.68-11.81,11.34-13.18,1.14-.23,2.6-2.23,2.69-3.5.16-2.21,1.41-6.05-2.09-6.17-6.53-.21-8.93-4-10.99-9.28-1.48-3.79-1.13-6.7,1.52-9.57.74-.8,1.33-1.73,2.41-3.17Z"/>
  <path class="cls-1" d="M139.87,246.6c-32.33-.15-62.64-27.28-60.9-65.49,1.55-34.07,31.48-60.84,64.5-58.84,35.19,2.14,61.63,31.03,59.82,64.74-1.88,34.92-31.23,60.85-63.42,59.59Z"/>
  <path class="cls-1" d="M270.71,204.95c-6.26.53-11.57,1.05-16.89,1.35-.89.05-2.05-.7-2.72-1.42-2.49-2.65-5.4-3.2-8.86-2.51-1.1.22-2.64-.17-3.55-.84-3.1-2.29-6.04-4.81-8.99-7.29-3.37-2.84-3.03-5.6.89-7.64,2.21-1.15,4.81-1.86,6.57-3.48,4.69-4.34,9.62-1.44,14.48-1.03.4.03.83.51,1.14.88,5.81,7.1,11.61,14.22,17.94,22Z"/>
  <path class="cls-1" d="M209.04,241.12c1.81-7.25,3.41-13.72,5.04-20.18,1.7-6.75,3.38-13.49,5.13-20.22.87-3.34,4.34-4.5,7.03-2.4,2.25,1.76,4.28,3.9,6.74,5.29,3.67,2.08,4.39,5.22,4.14,8.91-.05.77-.48,1.66-1.02,2.21-8.34,8.55-16.72,17.05-25.1,25.55-.23.23-.63.29-1.95.85Z"/>
  <path class="cls-1" d="M145.12,258.86c1.9,2.44,3.93,4.38,3.17,8.14-.87,4.29,2.41,7.79,6.97,8.6,3.8.67,6.48,5.85,6.38,9.4-.36,12.12-11.3,17.79-15.39,27.55l-1.13-.28v-53.41Z"/>
  <path class="cls-1" d="M248.48,259.6c-14.43,3.68-28.34,7.23-42.25,10.77-.12-.19-.25-.38-.37-.57,9.32-8.76,18.64-17.52,28.24-26.54,4.08,4.63,9.03,10.26,14.38,16.34Z"/>
  <path class="cls-1" d="M246.03,266.32c-4.68,4.77-9.36,9.55-14.03,14.32-2.7,2.76-5.39,5.53-8.09,8.29-2.29,2.34-4.72,2.56-7.26.42-3.43-2.89-6.88-5.76-10.24-8.73-1.92-1.7-1.39-4.45,1.03-5.08,12.73-3.32,25.49-6.53,38.23-9.78.12.19.23.37.35.56Z"/>
  <path class="cls-1" d="M178.07,279.51c7.99-7.51,15.95-15.04,24-22.48.9-.83,2.29-1.38,3.53-1.56,4.57-.66,7.07-3.13,7.68-7.76.14-1.04.31-2.36.99-3.01,8-7.66,16.1-15.22,23.37-22.06-1.78,4.57-3.69,10.73-8.13,15.42-9.08,9.59-18.44,18.93-27.79,28.26-1.01,1-2.68,1.63-4.13,1.83-3.31.47-6.43,1.56-7.3,4.89-.89,3.4-3.13,4.74-5.92,5.89-1.69.7-3.35,1.47-5.02,2.21l-1.27-1.63Z"/>
  <path class="cls-1" d="M273.04,199.43c-5.5-6.75-10.47-12.81-15.38-18.91-1.28-1.59-.36-7.57,1.42-8.55,4.44-2.42,8.97-4.67,13.96-7.24v34.7Z"/>
  <path class="cls-1" d="M213.24,202.35c-2.97,11.76-5.81,23.55-9.05,35.23-.44,1.57-2.91,2.58-4.52,3.92-3.44-3.53-6.54-6.72-9.69-9.94,7.56-9.82,15.13-19.65,22.7-29.48.19.09.37.18.56.27Z"/>
  <path class="cls-1" d="M186.66,234.64c3.25,3.72,6.25,7.05,9.11,10.49,1.43,1.73,2.61,3.75-.59,4.94-10.09,3.75-20.21,7.43-30.74,10.61,7.11-8.33,14.21-16.66,22.22-26.04Z"/>
  <path class="cls-1" d="M195.52,257.16c-7.33,7.06-14.63,14.15-22,21.18-1.89,1.81-6.56,1.25-8.17-.81-4.06-5.21-2.81-9.7,3.35-11.99,8.59-3.18,17.17-6.36,25.76-9.53.35.38.7.77,1.05,1.15Z"/>
  <path class="cls-1" d="M207.41,200.1c.39-6.18,1.23-12.25,1.01-18.29-.21-5.9-1.51-11.76-2.42-18.27,6.47,4.62,12.67,9.03,18.98,13.54-1.47,2.88-2.85,5.01-6.58,5.13-3.96.13-7.32,3.82-6.58,7.61.94,4.84-2.05,7.22-4.41,10.29Z"/>
  <path class="cls-1" d="M228.54,173.15c-6.5-4.66-12.84-9.2-19.53-13.99h28.97l.53,1c-3.26,4.25-6.53,8.5-9.97,12.99Z"/>
  <path class="cls-1" d="M229.87,180.13c4.73-6.1,9.4-12.25,14.25-18.25.72-.89,2.24-1.63,3.37-1.59,6.23.17,12.45.61,19.01,1.64-2.26,1.22-4.53,2.42-6.79,3.66-2.37,1.3-4.35,2.32-7.46.79-4.51-2.22-9.68.91-10.39,5.87-.32,2.23-1.28,3.24-3.08,4.11-2.88,1.39-5.69,2.94-8.53,4.42-.13-.21-.25-.42-.38-.63Z"/>
  <path class="cls-1" d="M236.24,142.42c1.49,4.04,2.85,7.71,4.21,11.38h-25.3c-.11-.39-.22-.78-.33-1.16,7.01-3.34,14.02-6.68,21.42-10.22Z"/>
  <path class="cls-1" d="M149.47,316.62c5.17-7.19,9.94-13.83,14.71-20.46.28.05.56.09.85.14-.41,5.73-.56,11.49-1.42,17.15-.19,1.25-2.78,2.74-4.45,3.03-2.89.5-5.93.14-9.68.14Z"/>
  <path class="cls-1" d="M147.46,252.38c7.17-1.88,14.29-3.74,21.86-5.72-3.55,4.17-6.83,8.28-10.4,12.11-1.83,1.96-6.35,1.13-7.99-1.12-1.17-1.61-2.3-3.24-3.42-4.88-.12-.17-.06-.47-.05-.39Z"/>
  <path class="cls-1" d="M307.73,342.91c-5.95,0-6.22-.2-6.65-6.26-.3-4.21-2.43-6.94-6.28-8.45-1.74-.68-3.54-1.23-5.2-2.05-4.21-2.09-7.79-1.29-11.35,1.67-1.4,1.17-4.35,2.49-5.26,1.85-2.51-1.78-4.48-4.45-6.27-7.04-.33-.48.96-2.44,1.87-3.35,3.77-3.79,4.22-7.96,1.95-12.65-.65-1.34-1.18-2.75-1.69-4.15-1.65-4.46-4.64-6.84-9.58-6.8-4.45.03-5.12-.89-5.18-5.74-.06-6.21.34-6.85,4.91-7.08,4.99-.26,8.53-2.38,10.04-7.38.43-1.42,1.08-2.78,1.69-4.15,2.01-4.46,1.44-8.4-2.05-11.99-2.96-3.04-2.85-4.16.12-7.15.88-.88,1.83-1.7,2.68-2.61,1.92-2.07,3.66-1.9,5.78-.09,5.81,4.97,16.73,4.06,21.48-2.06,1.47-1.89,2.03-4.74,2.32-7.23.37-3.23,1.63-4.82,4.96-4.56,1.24.1,2.5.08,3.74,0,3-.18,4.52,1.35,4.46,4.2-.11,5.03,1.71,8.56,6.6,10.53,5.99,2.41,11.83,5.43,17.35-.84,1.88-2.13,3.83-1.98,5.75.04.95.99,1.95,1.93,2.96,2.85,2.44,2.21,2.49,4.4.08,6.68-3.99,3.76-4.55,8.06-2.01,12.87.58,1.09,1.06,2.27,1.4,3.45,1.45,5.04,4.98,7.16,9.98,7.41,4.58.23,5.1,1,5.03,7.03-.05,4.69-.91,5.81-5.22,5.79-5.08-.02-8.18,2.34-9.75,7.06-.51,1.53-1.26,2.98-1.91,4.46-1.91,4.34-1.32,8.2,2.04,11.66,3.09,3.2,3.02,4.18-.13,7.41-.78.8-1.61,1.57-2.37,2.39-1.87,2.02-3.73,2.04-5.87.3-6.06-4.92-16.41-4.11-21.53,1.87-1.27,1.48-2.08,3.73-2.27,5.71-.59,5.98-.81,6.36-6.64,6.36ZM307.18,320.43c16.86.24,31.23-13.55,31.67-30.38.44-17.21-13.49-31.66-30.8-31.92-17-.26-31.42,13.56-31.6,30.29-.19,17.55,13.46,31.77,30.73,32.02Z"/>
  <path class="cls-1" d="M334.44,58.17c-1.08,1.43-1.67,2.37-2.41,3.17-2.66,2.87-3,5.78-1.52,9.57,2.06,5.28,4.46,9.07,10.99,9.28,3.5.11,2.25,3.96,2.09,6.17-.09,1.27-1.55,3.27-2.69,3.5-6.67,1.36-11.49,6.48-11.34,13.18.04,1.78,1.05,3.91,2.31,5.22,2.36,2.47,2.33,4.33-.13,6.59-2.18,1.99-3.98,4.39-7.09,1.22-4.24-4.32-8.67-1.95-13.09-.13-3.65,1.51-5.51,4.04-5.39,8.04.11,3.46-2.17,4.01-4.97,4.01-2.82,0-5.51-.17-5.46-3.91.06-4.36-2.08-6.86-5.99-8.44-4.42-1.79-8.67-3.56-12.72.63-2.74,2.84-4.57.76-6.52-1.14-1.94-1.89-3.57-3.75-.9-6.23,3.07-2.84,3.45-6.03,1.8-9.82-1.95-4.48-3.24-9.45-9.69-9.08-3.17.18-3.68-1.87-3.53-4.41.15-2.48-.82-5.6,3.38-5.69,4.15-.09,6.94-1.93,8.57-5.93,1.88-4.64,3.94-8.97-.77-13.27-2.8-2.56-.29-4.38,1.42-6.17,1.73-1.8,3.63-3.64,5.94-1.1,3.69,4.07,7.58,3.03,11.91,1.3,4.32-1.73,7.28-4.04,7.14-9.21-.1-3.92,2.98-3.52,5.63-3.58,2.65-.06,4.89.38,4.77,3.71-.18,4.75,2.42,7.24,6.55,8.85,4.3,1.68,8.38,3.38,12.35-.83.79-.84,3.09-1.43,3.84-.91,2.05,1.41,3.64,3.48,5.54,5.41ZM276.14,84.93c.12,14.2,11.13,25.08,25.23,24.93,13.3-.14,24.47-11.49,24.36-24.74-.11-13.88-11.38-25.17-24.95-25-13.74.18-24.75,11.27-24.64,24.81Z"/>
  <path d="M307.18,320.43c-17.27-.25-30.92-14.47-30.73-32.02.18-16.72,14.6-30.55,31.6-30.29,17.31.26,31.24,14.71,30.8,31.92-.43,16.83-14.81,30.62-31.67,30.38ZM307.59,314.54c13.87.01,25.51-11.44,25.47-25.06-.04-14.08-11.45-25.56-25.41-25.55-13.73,0-25.34,11.31-25.41,24.72-.07,14.46,11.1,25.88,25.35,25.89Z"/>
  <path d="M276.14,84.93c-.12-13.54,10.9-24.63,24.64-24.81,13.56-.18,24.83,11.11,24.95,25,.11,13.26-11.06,24.6-24.36,24.74-14.1.15-25.11-10.73-25.23-24.93ZM301.42,105.17c11.26-.41,20.05-9.6,19.73-20.64-.32-11.2-9.58-20.08-20.61-19.78-11.45.31-20.23,9.51-19.88,20.83.34,11.14,9.72,20,20.76,19.59Z"/>
  <path class="cls-1" d="M307.59,314.54c-14.24-.02-25.41-11.43-25.35-25.89.06-13.42,11.68-24.72,25.41-24.72,13.96,0,25.37,11.47,25.41,25.55.04,13.62-11.6,25.08-25.47,25.06Z"/>
  <path class="cls-1" d="M301.42,105.17c-11.04.4-20.41-8.45-20.76-19.59-.35-11.31,8.43-20.51,19.88-20.83,11.03-.3,20.29,8.59,20.61,19.78.32,11.04-8.47,20.22-19.73,20.64Z"/>
</svg>
